<svg xmlns="http://www.w3.org/2000/svg" viewBox="0 0 512 150"><defs><style>.cls-1,.cls-8{fill:#fff;}.cls-10,.cls-2,.cls-4,.cls-7{fill:none;}.cls-2{stroke:#707070;}.cls-3{fill:#192f34;}.cls-4{stroke:#569b3e;stroke-width:10px;}.cls-10,.cls-11,.cls-5,.cls-6,.cls-7,.cls-8,.cls-9{isolation:isolate;}.cls-6,.cls-7,.cls-8{font-size:50px;}.cls-6,.cls-9{fill:#2c4848;}.cls-10,.cls-6,.cls-7,.cls-8,.cls-9{font-family:NirmalaUI, Nirmala UI;}.cls-10,.cls-11,.cls-6,.cls-7,.cls-8,.cls-9{letter-spacing:0.5em;}.cls-10,.cls-7{stroke:#2c4848;}.cls-10,.cls-9{font-size:30px;}.cls-11{font-size:20px;font-family:MalgunGothic, Malgun Gothic;}.cls-12{letter-spacing:0.5em;}.cls-13{letter-spacing:0.48em;}.cls-14{fill:#4dae90;}.cls-15{fill:#707070;}</style></defs><g id="Layer_2" data-name="Layer 2"><g id="Layer_1-2" data-name="Layer 1"><g id="Grupo_1" data-name="Grupo 1"><g id="Rectángulo_35" data-name="Rectángulo 35"><path class="cls-1" d="M75,0H437a75,75,0,0,1,75,75h0a75,75,0,0,1-75,75H75A75,75,0,0,1,0,75H0A75,75,0,0,1,75,0Z"/><path class="cls-2" d="M75,.5H437A74.49,74.49,0,0,1,511.5,75h0A74.49,74.49,0,0,1,437,149.5H75A74.49,74.49,0,0,1,.5,75h0A74.49,74.49,0,0,1,75,.5Z"/></g></g><g id="Elipse_1" data-name="Elipse 1"><circle class="cls-3" cx="147.5" cy="75.5" r="57.5"/><circle class="cls-4" cx="147.5" cy="75.5" r="52.5"/></g><g id="F" class="cls-5"><text class="cls-6" transform="translate(224.5 72.5)">F</text><text class="cls-7" transform="translate(224.5 72.5)">F</text></g><g id="B" class="cls-5"><text class="cls-8" transform="translate(127.5 92.5)">B</text><text class="cls-7" transform="translate(127.5 92.5)">B</text></g><g id="RIENDS" class="cls-5"><text class="cls-9" transform="translate(255.5 70.5)">RIENDS</text><text class="cls-10" transform="translate(255.5 70.5)">RIENDS</text></g><g id="VETERINARY" class="cls-5"><text class="cls-11" transform="translate(228 116)">V<tspan class="cls-12" x="22.69" y="0">E</tspan><tspan x="43.07" y="0">TERINA</tspan><tspan class="cls-13" x="170.15" y="0">R</tspan><tspan x="191.93" y="0">Y</tspan></text></g><g id="Polígono_1" data-name="Polígono 1"><path class="cls-14" d="M179.2,93.5H154.8L167,68.15Z"/><path class="cls-15" d="M167,69.31,155.59,93h22.82L167,69.31M167,67l13,27H154Z"/></g></g></g></svg>